# xmcd
#
# Track frame offsets: 
#        150
#        19221
#        35479
#        51082
#        67775
#        86347
#        100150
#        114901
#        130079
#        146041
#        161962
#
# Disc length: 2341 seconds
#
# Revision: 7
# Processed by: cddbd v1.5.2PL0 Copyright (c) Steve Scherf et al.
# Submitted via: ExactAudioCopy v0.95b4
#
DISCID=8c09230b
DTITLE=Keith Whitley - Greatest Hits
DYEAR=1990
DGENRE=Country
TTITLE0=Don't Close Your Eyes
TTITLE1=I'm No Stranger to the Rain
TTITLE2=Miami, My Amy
TTITLE3=When You Say Nothing at All
TTITLE4=It Ain't Nothin'
TTITLE5=I'm Over You
TTITLE6=I Wonder Do You Think of Me
TTITLE7=Ten Feet Away
TTITLE8=Talk to Me Texas
TTITLE9='Til a Tear Becomes a Rose
TTITLE10=Tell Lorrie I Love Her
EXTD=ID3G: 2
EXTT0=
EXTT1=
EXTT2=
EXTT3=
EXTT4=
EXTT5=
EXTT6=
EXTT7=
EXTT8=
EXTT9=
EXTT10=
PLAYORDER=
